<svg xmlns="http://www.w3.org/2000/svg" width="120.746" height="69.577" viewBox="0 0 120.746 69.577">
  <g id="Group_5" data-name="Group 5" transform="translate(-113.083 -298.576)">
    <path id="Path_1" data-name="Path 1" d="M147.362,97.991a4.958,4.958,0,0,1-2.4-.589,6.353,6.353,0,0,1-1.767-1.359v1.223a12.888,12.888,0,0,1-.544,3.806,8.868,8.868,0,0,1-1.631,3.081,7.669,7.669,0,0,1-2.673,2.062,8.52,8.52,0,0,1-3.67.748q-.815,0-1.563-.068t-1.291-.159c-.242-.03-.461-.061-.657-.09a3.606,3.606,0,0,1-.566-.136l.544-5.165,1.269.272q.543.09,1.155.158a10.051,10.051,0,0,0,1.11.068,2.75,2.75,0,0,0,2.673-1.269,8.063,8.063,0,0,0,.68-3.715v-16.9h5.165v8.608a5.026,5.026,0,0,0,.838,2.99q.838,1.178,3.194,1.178h1.586c.513,0,.845.121,1,.362a1.6,1.6,0,0,1,.226.861v2.764a1.623,1.623,0,0,1-.272.816,1.016,1.016,0,0,1-.951.453Z" transform="translate(60.866 260.285)" fill="#eca641"/>
    <path id="Path_2" data-name="Path 2" d="M27.9,82.393a9.084,9.084,0,0,0-1.926-3.172,8.852,8.852,0,0,0-3.013-2.062,10.02,10.02,0,0,0-3.941-.747,9.034,9.034,0,0,0-4.055.883,9.462,9.462,0,0,0-3.036,2.333,10.235,10.235,0,0,0-1.9,3.33,11.538,11.538,0,0,0-.656,3.829v4.44H7.786a7.741,7.741,0,0,0-5.55,2.039Q.083,95.305.083,99.293v7.159H5.248v-5.89a4.979,4.979,0,0,1,.725-3.149,2.717,2.717,0,0,1,2.175-.838h9.923a14.941,14.941,0,0,0,4.236-.566,8.761,8.761,0,0,0,3.331-1.79,8.054,8.054,0,0,0,2.174-3.149,12.506,12.506,0,0,0,.771-4.644,11.657,11.657,0,0,0-.679-4.032m-5.63,5.69a1.82,1.82,0,0,1-.42,1.385,2.368,2.368,0,0,1-1.552.378H16.229V83.131H20.3a2.372,2.372,0,0,1,1.552.377,1.824,1.824,0,0,1,.42,1.385Z" transform="translate(113 261.702)" fill="#eca641"/>
    <path id="Path_3" data-name="Path 3" d="M183.162,69.069a2.681,2.681,0,0,0,1.955-.771,2.588,2.588,0,0,0,0-3.715,2.683,2.683,0,0,0-1.955-.77,2.627,2.627,0,0,0-1.91.77,2.588,2.588,0,0,0,0,3.715,2.625,2.625,0,0,0,1.91.771" transform="translate(40.946 266.734)" fill="#eca641"/>
    <path id="Path_4" data-name="Path 4" d="M182.269,82.453a7.941,7.941,0,0,0-1.676-2.787,7.47,7.47,0,0,0-2.628-1.79,9.1,9.1,0,0,0-3.489-.634,9.91,9.91,0,0,0-4.123.838,10.183,10.183,0,0,0-3.171,2.2,9.8,9.8,0,0,0-2.04,3.126,9.462,9.462,0,0,0-.725,3.624A9.077,9.077,0,0,0,164.825,90a6.85,6.85,0,0,0,.771,1.653H159.66a1.028,1.028,0,0,0-.928.453,1.719,1.719,0,0,0-.295.951v2.673a1.324,1.324,0,0,0,.272.816,1.115,1.115,0,0,0,.951.363h23.2V86.078a10.621,10.621,0,0,0-.589-3.624m-5.554,7.725h-4.071a2.369,2.369,0,0,1-1.553-.378,1.822,1.822,0,0,1-.42-1.385v-3.19a1.822,1.822,0,0,1,.42-1.385,2.372,2.372,0,0,1,1.553-.378h4.071Z" transform="translate(49.746 261.37)" fill="#eca641"/>
    <path id="Path_5" data-name="Path 5" d="M113.814,82.612a8.313,8.313,0,0,0-1.745-2.855,7.751,7.751,0,0,0-2.741-1.857,9.463,9.463,0,0,0-3.6-.656,8.979,8.979,0,0,0-3.9.838,9.273,9.273,0,0,0-3.035,2.288,10.556,10.556,0,0,0-1.971,3.376,11.736,11.736,0,0,0-.7,4.055,10.4,10.4,0,0,0,.543,3.307,7.936,7.936,0,0,0,1.745,2.922,8.716,8.716,0,0,0,3.126,2.084,12.447,12.447,0,0,0,4.735.793h3.081a5.533,5.533,0,0,1-.635,2.469,4.055,4.055,0,0,1-1.4,1.45,5.512,5.512,0,0,1-1.994.7,15.292,15.292,0,0,1-2.4.181q-.816,0-2.016-.091t-2.515-.272l-.363,5.075q1.4.226,2.56.294t2.107.068a17.948,17.948,0,0,0,4.734-.589,10.218,10.218,0,0,0,3.716-1.835,8.2,8.2,0,0,0,2.424-3.262,12.386,12.386,0,0,0,.861-4.87V86.259a10.442,10.442,0,0,0-.611-3.647m-5.487,7.154a1.149,1.149,0,0,1-.495,1.062,3.691,3.691,0,0,1-1.8.307h-3.365V84.127a1.148,1.148,0,0,1,.495-1.062,3.61,3.61,0,0,1,1.767-.307h3.393Z" transform="translate(74.638 261.37)" fill="#eca641"/>
    <path id="Path_6" data-name="Path 6" d="M73.98,82.612a8.32,8.32,0,0,0-1.744-2.855A7.754,7.754,0,0,0,69.495,77.9a9.461,9.461,0,0,0-3.6-.656,8.975,8.975,0,0,0-3.9.838,9.269,9.269,0,0,0-3.036,2.288,10.556,10.556,0,0,0-1.971,3.376,11.736,11.736,0,0,0-.7,4.055,10.386,10.386,0,0,0,.543,3.307,7.934,7.934,0,0,0,1.744,2.922A8.721,8.721,0,0,0,61.7,96.113a12.449,12.449,0,0,0,4.735.793h3.081a5.541,5.541,0,0,1-.634,2.469,4.061,4.061,0,0,1-1.4,1.45,5.512,5.512,0,0,1-1.994.7,15.286,15.286,0,0,1-2.4.181q-.815,0-2.016-.091t-2.515-.272l-.363,5.075q1.4.226,2.56.294t2.107.068a17.948,17.948,0,0,0,4.734-.589,10.214,10.214,0,0,0,3.716-1.835,8.2,8.2,0,0,0,2.424-3.262,12.386,12.386,0,0,0,.861-4.87V86.259a10.442,10.442,0,0,0-.611-3.647m-5.713,7.154a1.149,1.149,0,0,1-.495,1.062,3.691,3.691,0,0,1-1.8.307H62.612V84.127a1.148,1.148,0,0,1,.495-1.062,3.61,3.61,0,0,1,1.767-.307h3.393Z" transform="translate(90.549 261.37)" fill="#eca641"/>
    <path id="Path_32" data-name="Path 32" d="M.368-38.683h6.48l4.123,16.825H11.3l4.123-16.825h6.48L16.162-15.672H6.111ZM30.815-22.7v7.032h-6.48V-38.683H34.644a11.625,11.625,0,0,1,4.768.828,5.165,5.165,0,0,1,2.651,2.669,11.868,11.868,0,0,1,.828,4.823q0,3.976-1.841,5.817T35.2-22.7Zm0-4.749h3.571a2.08,2.08,0,0,0,1.362-.331A1.6,1.6,0,0,0,36.117-29v-2.8a1.6,1.6,0,0,0-.368-1.215,2.08,2.08,0,0,0-1.362-.331H30.815Zm7.658.442,5.412,11.34H36.853l-3.939-8.321Zm7.658-.147a27.708,27.708,0,0,1,.515-5.835,8.059,8.059,0,0,1,1.73-3.7,6.751,6.751,0,0,1,3.277-1.951,18.922,18.922,0,0,1,5.118-.589,18.881,18.881,0,0,1,5.136.589,6.749,6.749,0,0,1,3.258,1.951,8.059,8.059,0,0,1,1.73,3.7,27.707,27.707,0,0,1,.515,5.835,27.439,27.439,0,0,1-.515,5.817,8.047,8.047,0,0,1-1.73,3.682,6.748,6.748,0,0,1-3.258,1.951,18.88,18.88,0,0,1-5.136.589,18.922,18.922,0,0,1-5.118-.589,6.751,6.751,0,0,1-3.277-1.951,8.047,8.047,0,0,1-1.73-3.682A27.44,27.44,0,0,1,46.131-27.159Zm6.958,6.517h4.381a4.123,4.123,0,0,0,2.338-.479,1.934,1.934,0,0,0,.644-1.657V-33.713H56.035a4.036,4.036,0,0,0-2.3.479,1.934,1.934,0,0,0-.644,1.657Zm17.12-6.517a27.708,27.708,0,0,1,.515-5.835,8.059,8.059,0,0,1,1.73-3.7,6.751,6.751,0,0,1,3.277-1.951,18.922,18.922,0,0,1,5.118-.589,18.881,18.881,0,0,1,5.136.589,6.748,6.748,0,0,1,3.258,1.951,8.059,8.059,0,0,1,1.73,3.7,27.707,27.707,0,0,1,.515,5.835,27.439,27.439,0,0,1-.515,5.817,8.047,8.047,0,0,1-1.73,3.682,6.748,6.748,0,0,1-3.258,1.951,18.88,18.88,0,0,1-5.136.589,18.922,18.922,0,0,1-5.118-.589,6.751,6.751,0,0,1-3.277-1.951,8.047,8.047,0,0,1-1.73-3.682A27.44,27.44,0,0,1,70.209-27.159Zm6.958,6.517h4.381a4.123,4.123,0,0,0,2.338-.479,1.934,1.934,0,0,0,.644-1.657V-33.713H80.113a4.036,4.036,0,0,0-2.3.479,1.934,1.934,0,0,0-.644,1.657Zm17.378,4.97,1.4-23.011h8.247l3.424,13.033h.258L111.3-38.683h8.247l1.4,23.011H114.5l-.7-12.849h-.258l-3.277,12.849h-5.007l-3.314-12.849h-.221l-.736,12.849Z" transform="translate(112.886 337.811)" fill="#eca641"/>
  </g>
</svg>
