<svg width="305" height="171" viewBox="0 0 305 171" fill="none" xmlns="http://www.w3.org/2000/svg">
<path d="M297.23 65.8521L293.997 74.1245L296.289 75.0205L299.522 66.7482L297.23 65.8521Z" fill="#4A7C7A"/>
<path d="M95.249 45.5673L93.4155 47.2094L99.3411 53.8256L101.175 52.1835L95.249 45.5673Z" fill="#0CBC8B"/>
<path d="M122.415 75.1801L115.307 80.5049L116.782 82.475L123.891 77.1503L122.415 75.1801Z" fill="#4A7C7A"/>
<path d="M204.635 14.0769L202.948 15.8693L209.417 21.9562L211.103 20.1638L204.635 14.0769Z" fill="#4A7C7A"/>
<path d="M157.601 16.0562L153.174 23.7565L155.308 24.9832L159.735 17.2829L157.601 16.0562Z" fill="#0CBC8B"/>
<path d="M221.883 81.9065L219.802 83.22L224.542 90.7313L226.623 89.4178L221.883 81.9065Z" fill="#0CBC8B"/>
<path d="M125.367 118.483L123.165 119.583L127.134 127.528L129.336 126.428L125.367 118.483Z" fill="#0CBC8B"/>
<path d="M93.154 97.5768L90.6035 106.085L92.9608 106.791L95.5113 98.2835L93.154 97.5768Z" fill="#4A7C7A"/>
<path d="M247.229 124.088L239.852 129.035L241.223 131.079L248.6 126.132L247.229 124.088Z" fill="#4A7C7A"/>
<path d="M248.334 3.94492e-06L243.907 7.70013L246.041 8.92679L250.468 1.22666L248.334 3.94492e-06Z" fill="#0CBC8B"/>
<path d="M2.29238 62.9956L0 63.8916L3.2334 72.1639L5.52578 71.2679L2.29238 62.9956Z" fill="#0CBC8B"/>
<path d="M240.257 52.7759L238.781 54.746L245.89 60.0708L247.366 58.1006L240.257 52.7759Z" fill="#0CBC8B"/>
<path d="M40.5745 16.4855L34.106 22.5724L35.7927 24.3648L42.2612 18.278L40.5745 16.4855Z" fill="#4A7C7A"/>
<path d="M112.22 9.23706L110.086 10.4637L114.513 18.1641L116.647 16.9374L112.22 9.23706Z" fill="#4A7C7A"/>
<path d="M25.1877 105.919L20.4478 113.43L22.5292 114.743L27.2692 107.232L25.1877 105.919Z" fill="#0CBC8B"/>
<path d="M4.19271 126.494L2.82178 128.54L10.2026 133.487L11.5735 131.442L4.19271 126.494Z" fill="#4A7C7A"/>
<path d="M288.948 28.4066L286.814 29.6332L291.241 37.3334L293.375 36.1067L288.948 28.4066Z" fill="#4A7C7A"/>
<path d="M196.473 49.3913L190.548 56.0075L192.381 57.6496L198.307 51.0334L196.473 49.3913Z" fill="#4A7C7A"/>
<path d="M144.454 123.967L140.485 131.912L142.687 133.012L146.656 125.067L144.454 123.967Z" fill="#B88A7A"/>
<path d="M176.668 103.062L174.311 103.768L176.862 112.276L179.219 111.569L176.668 103.062Z" fill="#4A7C7A"/>
<path d="M177.462 107.917L169.073 101.54C168.889 101.4 168.677 101.3 168.452 101.246C168.227 101.192 167.993 101.186 167.765 101.227C167.537 101.269 167.321 101.357 167.129 101.487C166.937 101.617 166.775 101.785 166.651 101.981C166.435 102.35 166.364 102.786 166.451 103.205C166.539 103.624 166.778 103.995 167.124 104.247L168.923 105.614L161.293 103.911C160.448 103.707 159.28 103.997 159.113 104.96C159.025 105.326 159.064 105.712 159.223 106.053C159.382 106.395 159.652 106.673 159.989 106.841C159.985 106.849 159.982 106.857 159.979 106.865C159.979 106.871 159.979 106.878 159.979 106.884L158.676 106.569C158.435 106.511 158.183 106.507 157.94 106.559C157.698 106.61 157.469 106.715 157.272 106.866C157.074 107.016 156.913 107.209 156.8 107.43C156.687 107.651 156.624 107.895 156.617 108.143C156.613 108.534 156.744 108.914 156.987 109.221C157.23 109.527 157.571 109.74 157.953 109.825L158.507 109.959C158.511 109.977 158.517 109.994 158.527 110.009C158.131 110.006 157.747 110.143 157.443 110.397C157.14 110.651 156.936 111.004 156.869 111.394C156.808 111.823 156.911 112.259 157.157 112.615C157.404 112.971 157.775 113.221 158.198 113.316L159.576 113.648C159.553 113.657 159.533 113.672 159.517 113.69C159.501 113.709 159.489 113.731 159.484 113.754C159.478 113.783 159.481 113.812 159.492 113.839C159.139 113.934 158.826 114.142 158.603 114.432C158.379 114.721 158.257 115.076 158.255 115.442C158.261 115.826 158.396 116.197 158.639 116.495C158.881 116.793 159.218 117 159.593 117.083L171.214 119.891C172.84 120.283 174.546 120.181 176.114 119.598C177.681 119.015 179.039 117.977 180.013 116.617C180.853 115.445 181.203 113.991 180.987 112.565C180.772 111.139 180.01 109.853 178.861 108.98L177.462 107.917Z" fill="#FAB397"/>
<g opacity="0.2">
<path d="M167.533 108.565C167.524 108.604 167.499 108.638 167.465 108.659C167.431 108.68 167.389 108.687 167.35 108.678L160.096 107.047C160.076 107.043 160.057 107.035 160.041 107.023C160.024 107.011 160.01 106.997 159.999 106.979C159.989 106.962 159.981 106.943 159.978 106.923C159.974 106.903 159.975 106.883 159.979 106.863C159.984 106.844 159.992 106.825 160.004 106.808C160.015 106.792 160.03 106.778 160.047 106.767C160.064 106.756 160.083 106.749 160.103 106.746C160.123 106.742 160.144 106.743 160.163 106.747L167.418 108.378C167.437 108.382 167.456 108.39 167.473 108.402C167.489 108.414 167.503 108.429 167.514 108.446C167.525 108.463 167.532 108.482 167.536 108.502C167.539 108.522 167.538 108.542 167.534 108.562L167.533 108.565Z" fill="#3D3A39"/>
</g>
<g opacity="0.2">
<path d="M166.903 111.784C166.893 111.824 166.868 111.858 166.834 111.879C166.799 111.9 166.758 111.907 166.718 111.897L158.622 110.079C158.602 110.075 158.584 110.066 158.567 110.055C158.551 110.043 158.536 110.028 158.526 110.011C158.515 109.994 158.508 109.975 158.504 109.955C158.501 109.935 158.501 109.914 158.506 109.894C158.516 109.855 158.541 109.821 158.575 109.8C158.609 109.778 158.651 109.77 158.69 109.778L166.786 111.596C166.806 111.601 166.825 111.609 166.842 111.621C166.858 111.633 166.872 111.647 166.883 111.665C166.894 111.682 166.901 111.701 166.905 111.721C166.908 111.741 166.907 111.761 166.903 111.781V111.784Z" fill="#3D3A39"/>
</g>
<g opacity="0.2">
<path d="M166.24 115.275C166.231 115.314 166.206 115.348 166.172 115.369C166.138 115.39 166.096 115.397 166.057 115.388L159.599 113.938C159.559 113.929 159.525 113.904 159.503 113.87C159.481 113.835 159.474 113.794 159.483 113.754C159.492 113.714 159.516 113.679 159.551 113.657C159.585 113.636 159.627 113.628 159.667 113.637L166.125 115.088C166.144 115.092 166.163 115.1 166.18 115.112C166.196 115.124 166.211 115.139 166.221 115.156C166.232 115.173 166.24 115.192 166.243 115.212C166.246 115.232 166.246 115.252 166.241 115.272L166.24 115.275Z" fill="#3D3A39"/>
</g>
<path d="M137.635 64.0557L142.319 54.6164C142.422 54.409 142.567 54.2253 142.744 54.077C142.922 53.9287 143.129 53.819 143.351 53.755C143.574 53.691 143.807 53.674 144.037 53.7052C144.266 53.7363 144.487 53.8149 144.684 53.9359C145.042 54.1704 145.3 54.5295 145.408 54.9434C145.516 55.3573 145.466 55.7965 145.269 56.1759L144.264 58.2L150.343 53.2858C151.009 52.7274 152.184 52.4687 152.761 53.2575C153.003 53.5466 153.14 53.909 153.149 54.2858C153.158 54.6626 153.04 55.0314 152.813 55.332C152.819 55.337 152.826 55.3427 152.831 55.349C152.835 55.3544 152.838 55.36 152.84 55.3659L153.868 54.5044C154.059 54.3451 154.282 54.2302 154.523 54.1682C154.763 54.1063 155.014 54.0987 155.258 54.1461C155.502 54.1936 155.732 54.2948 155.932 54.4424C156.131 54.59 156.295 54.7803 156.412 54.9995C156.589 55.3482 156.641 55.7472 156.559 56.1296C156.477 56.5121 156.266 56.8548 155.962 57.1005L155.525 57.4669C155.53 57.4844 155.531 57.5026 155.529 57.5207C155.882 57.3418 156.287 57.2942 156.672 57.3864C157.057 57.4787 157.396 57.7048 157.629 58.0244C157.874 58.3816 157.975 58.8181 157.913 59.2466C157.85 59.6752 157.628 60.0644 157.291 60.3364L156.205 61.2462C156.229 61.244 156.254 61.2478 156.276 61.2571C156.299 61.2664 156.319 61.281 156.335 61.2997C156.353 61.323 156.363 61.3508 156.366 61.38C156.724 61.3078 157.097 61.3554 157.425 61.5156C157.754 61.6758 158.021 61.9395 158.186 62.2663C158.351 62.613 158.395 63.0055 158.31 63.3801C158.224 63.7547 158.015 64.0895 157.716 64.3304L148.551 72.0077C147.269 73.0818 145.695 73.7485 144.031 73.9223C142.368 74.0961 140.69 73.7692 139.214 72.9833C137.941 72.3058 136.982 71.1588 136.542 69.7858C136.101 68.4128 136.213 66.9221 136.853 65.6303L137.635 64.0557Z" fill="#FAB397"/>
<g opacity="0.2">
<path d="M146.819 60.2259C146.845 60.2569 146.882 60.2764 146.922 60.2802C146.963 60.2839 147.003 60.2716 147.034 60.2459L152.81 55.564C152.842 55.5383 152.862 55.501 152.866 55.4605C152.87 55.4199 152.858 55.3793 152.833 55.3476C152.807 55.3159 152.77 55.2957 152.729 55.2914C152.689 55.2872 152.648 55.2992 152.616 55.3249L146.84 60.0069C146.809 60.0325 146.789 60.0696 146.785 60.1099C146.78 60.1502 146.792 60.1906 146.817 60.2223L146.819 60.2259Z" fill="#3D3A39"/>
</g>
<g opacity="0.2">
<path d="M148.813 62.8306C148.839 62.8616 148.876 62.881 148.917 62.8847C148.957 62.8884 148.997 62.876 149.028 62.8503L155.475 57.6253C155.506 57.5996 155.526 57.5626 155.53 57.5223C155.534 57.482 155.522 57.4416 155.497 57.41C155.471 57.3797 155.434 57.3605 155.394 57.3563C155.354 57.3521 155.314 57.3631 155.282 57.3872L148.833 62.6113C148.802 62.6369 148.782 62.6739 148.778 62.7143C148.773 62.7546 148.785 62.795 148.811 62.8266L148.813 62.8306Z" fill="#3D3A39"/>
</g>
<g opacity="0.2">
<path d="M150.958 65.6635C150.984 65.6945 151.021 65.714 151.061 65.7177C151.102 65.7215 151.142 65.7092 151.173 65.6835L156.315 61.5156C156.347 61.4899 156.367 61.4527 156.371 61.4121C156.375 61.3715 156.363 61.3309 156.338 61.2992C156.312 61.2675 156.275 61.2473 156.234 61.2431C156.193 61.2388 156.153 61.2509 156.121 61.2766L150.978 65.4445C150.947 65.4701 150.927 65.5071 150.922 65.5474C150.918 65.5878 150.93 65.6282 150.955 65.6598L150.958 65.6635Z" fill="#3D3A39"/>
</g>
<path d="M32.5199 55.9624C32.5199 55.9624 31.8593 65.8737 29.6297 69.4687C23.2101 79.8208 21.3503 91.4663 27.7788 97.5508C34.2074 103.635 75.2106 103.72 78.317 89.7255C80.9321 77.9437 75.3201 76.6768 73.9544 66.9588C73.3367 62.5611 71.6368 53.3397 71.6368 53.3397" fill="#3D3A39"/>
<path d="M67.7048 87.6738C67.6341 87.6645 66.8486 100.697 51.7084 99.5611C41.2271 98.7756 37.49 87.6547 37.25 87.6547C38.38 87.4144 40.2829 87.0652 40.7847 86.7972C42.4353 85.9106 44.4766 84.9876 45.0095 81.7824C45.3171 79.9365 44.7956 70.4846 44.9559 68.6146L61.0446 72.2068C60.8197 76.1544 59.2464 85.3054 64.7612 86.9249C65.6786 87.1935 66.6671 87.4399 67.7048 87.6738Z" fill="#FAB397"/>
<path opacity="0.5" d="M61.2707 83.1856C61.0187 82.3735 60.8564 81.5362 60.7867 80.6887C60.61 78.7547 60.6452 76.8073 60.8919 74.881C57.6221 74.4396 54.5416 73.0898 52.0006 70.9851C51.7019 72.0884 50.0587 76.9094 50.5137 77.9579C51.373 79.9401 55.4135 83.1856 61.2707 83.1856Z" fill="#3D3A39"/>
<path d="M59.19 79.1254C52.8467 79.7408 44.6396 77.202 42.9395 68.7546L41.4055 61.1327C39.7053 52.6856 42.7638 44.9449 50.7171 43.3441C58.6707 41.7443 65.9936 47.3945 67.6937 55.8418L68.373 59.2162C69.0252 62.4574 70.5072 78.0302 59.19 79.1254Z" fill="#FAB397"/>
<path opacity="0.1" d="M55.1579 68.056C56.2018 67.9314 56.9739 67.2098 56.8826 66.4442C56.7912 65.6785 55.871 65.1588 54.8271 65.2833C53.7832 65.4079 53.0111 66.1295 53.1024 66.8952C53.1938 67.6608 54.114 68.1805 55.1579 68.056Z" fill="#3D3A39"/>
<path opacity="0.1" d="M66.1879 64.995C66.2802 65.7595 67.2016 66.2785 68.2455 66.1555C68.4259 66.1338 68.6035 66.0935 68.7756 66.0352C68.8242 65.1236 68.827 64.2468 68.8005 63.4348C68.5106 63.3623 68.2096 63.3447 67.9132 63.3828C66.8693 63.5059 66.0974 64.2274 66.1879 64.995Z" fill="#3D3A39"/>
<path opacity="0.5" d="M61.5756 67.3581C61.5808 67.3576 61.5859 67.3568 61.591 67.3557C61.9134 67.2885 62.2318 67.2035 62.5447 67.1012C63.0118 66.9449 63.6215 66.6883 63.5379 66.2659C63.4413 65.7847 61.0766 60.857 60.8083 60.2974C60.7973 60.2721 60.7814 60.2493 60.7614 60.2304C60.7414 60.2114 60.7177 60.1967 60.6919 60.1871C60.6661 60.1775 60.6386 60.1732 60.6111 60.1744C60.5836 60.1757 60.5566 60.1825 60.5318 60.1944C60.5069 60.2063 60.4847 60.2231 60.4666 60.2438C60.4484 60.2645 60.4345 60.2886 60.4259 60.3148C60.4172 60.3409 60.414 60.3686 60.4162 60.396C60.4185 60.4235 60.4263 60.4502 60.4391 60.4746C61.4473 62.5731 63.0711 66.0235 63.1364 66.3475C63.0853 66.4985 62.3106 66.7936 61.511 66.9548C61.4845 66.9591 61.4591 66.9685 61.4362 66.9826C61.4133 66.9967 61.3935 67.0152 61.3777 67.037C61.362 67.0588 61.3507 67.0834 61.3445 67.1096C61.3383 67.1357 61.3374 67.1628 61.3416 67.1894C61.3459 67.2159 61.3554 67.2413 61.3695 67.2642C61.3836 67.287 61.4021 67.3069 61.4239 67.3226C61.4456 67.3384 61.4703 67.3496 61.4965 67.3558C61.5226 67.362 61.5497 67.363 61.5762 67.3587L61.5756 67.3581Z" fill="#3D3A39"/>
<path d="M35.0593 63.8693L42.1896 62.4765C47.5758 60.2241 49.1039 50.8372 49.1039 50.8372C49.1039 50.8372 55.7512 57.1678 71.6381 53.3396C71.6381 53.3396 68.1871 31.1618 44.7287 37.8952C37.1649 40.0657 31.807 47.7756 32.6039 57.9874C33.1623 65.1417 35.0593 63.8693 35.0593 63.8693Z" fill="#3D3A39"/>
<path d="M43.9513 71.2288C41.5343 71.7152 39.0546 69.5237 38.5673 67.1062C38.0799 64.6886 39.7721 62.962 42.189 62.4753L43.7606 63.8444L46.0289 70.8101L43.9513 71.2288Z" fill="#FAB397"/>
<path d="M62.5216 56.3676C63.1263 55.94 63.8335 55.6801 64.5712 55.6145C64.9419 55.5789 65.3158 55.5997 65.6803 55.676C66.0479 55.7509 66.4046 55.8716 66.742 56.0353L66.7525 56.0403C66.7899 56.0568 66.8323 56.058 66.8706 56.0437C66.9089 56.0293 66.94 56.0006 66.9574 55.9636C66.9748 55.9266 66.9771 55.8843 66.9637 55.8457C66.9503 55.807 66.9223 55.7752 66.8857 55.7569C66.5281 55.5681 66.1481 55.425 65.7548 55.3311C65.3587 55.2348 64.9504 55.1986 64.5435 55.2237C63.7194 55.2693 62.9226 55.5349 62.2361 55.9929C62.2105 56.0102 62.1885 56.0324 62.1715 56.0583C62.1545 56.0841 62.1428 56.113 62.137 56.1434C62.1312 56.1737 62.1314 56.205 62.1377 56.2352C62.144 56.2655 62.1562 56.2942 62.1736 56.3198C62.191 56.3453 62.2133 56.3672 62.2391 56.3842C62.265 56.4011 62.2939 56.4128 62.3243 56.4185C62.3547 56.4242 62.3859 56.4239 62.4162 56.4175C62.4464 56.4112 62.4751 56.3989 62.5006 56.3815L62.5062 56.3778L62.5216 56.3676Z" fill="#3D3A39"/>
<path d="M56.0081 57.2678C55.1984 57.1067 54.3603 57.1659 53.5813 57.4392C53.1962 57.5718 52.8332 57.7615 52.5045 58.0019C52.177 58.2392 51.8807 58.5168 51.6227 58.8283C51.5967 58.8592 51.5836 58.8991 51.5863 58.9394C51.589 58.9798 51.6072 59.0176 51.6371 59.0449C51.667 59.0721 51.7063 59.0867 51.7468 59.0856C51.7872 59.0845 51.8257 59.0678 51.8541 59.039L51.8624 59.0304C52.1114 58.7499 52.3946 58.5019 52.7054 58.292C53.0129 58.0822 53.3505 57.9201 53.7065 57.8111C54.4131 57.5891 55.166 57.5584 55.8884 57.7219L55.9063 57.7265C55.9669 57.7412 56.0309 57.7312 56.0841 57.6987C56.1374 57.6663 56.1755 57.6139 56.1902 57.5533C56.2049 57.4927 56.1949 57.4287 56.1624 57.3755C56.1299 57.3222 56.0776 57.284 56.017 57.2693L56.0081 57.2678Z" fill="#3D3A39"/>
<path d="M42.1945 62.359C46.9875 60.5746 48.5781 57.2648 49.0679 54.8017C49.3849 53.159 49.3552 51.4682 48.9808 49.8376L48.8325 49.8785C49.2013 51.4878 49.2298 53.1564 48.9162 54.7774C48.4326 57.2002 46.8647 60.457 42.1406 62.2153L42.1945 62.359Z" fill="#3D3A39"/>
<path d="M80.0356 89.224L125.547 104.437L112.185 110.376L134.878 63.8213L153.425 72.4646L132.369 119.783C131.304 122.175 129.414 124.105 127.044 125.219C124.674 126.333 121.981 126.557 119.46 125.85L119.007 125.722L72.8071 112.751L80.0356 89.224Z" fill="#DD727C"/>
<path d="M51.4265 96.3029C40.9378 95.8085 40.4963 86.9061 40.4963 86.9061C40.4963 86.9061 35.2994 87.2421 31.8447 87.7094C26.1887 88.4746 22.4574 90.3925 19.4878 93.3617C16.7257 96.1242 15.044 99.1128 16.8235 118.193C18.112 132.009 17.2053 162.397 17.2053 162.397H81.1215C81.1215 162.397 85.5847 118.494 86.1138 112.276C87.1236 100.404 89.9765 97.7831 84.1962 91.6675C80.0043 87.2323 69.1824 86.9061 64.8266 86.9067C64.7555 86.9067 65.7105 96.9764 51.4265 96.3029Z" fill="#DD727C"/>
<path d="M63.7018 69.0232C61.6409 70.0711 59.2895 70.4025 57.0192 69.9649C56.9406 69.9502 56.8594 69.9581 56.7851 69.9878C56.7109 70.0174 56.6466 70.0676 56.5998 70.1325C56.553 70.1973 56.5256 70.2741 56.5208 70.354C56.516 70.4338 56.534 70.5133 56.5727 70.5833C57.2496 71.7758 58.855 73.8137 61.6091 72.983C63.3874 72.4465 64.0596 70.6171 64.3088 69.4853C64.3259 69.407 64.3202 69.3255 64.2925 69.2503C64.2648 69.1751 64.2163 69.1094 64.1525 69.0609C64.0888 69.0123 64.0125 68.983 63.9327 68.9763C63.8528 68.9696 63.7727 68.9859 63.7018 69.0232Z" fill="white"/>
<path d="M63.8309 59.8574C64.3809 59.8574 64.8267 59.4115 64.8267 58.8615C64.8267 58.3115 64.3809 57.8656 63.8309 57.8656C63.2808 57.8656 62.835 58.3115 62.835 58.8615C62.835 59.4115 63.2808 59.8574 63.8309 59.8574Z" fill="#3D3A39"/>
<path d="M54.2615 61.5326C54.8115 61.5326 55.2574 61.0867 55.2574 60.5367C55.2574 59.9867 54.8115 59.5408 54.2615 59.5408C53.7115 59.5408 53.2656 59.9867 53.2656 60.5367C53.2656 61.0867 53.7115 61.5326 54.2615 61.5326Z" fill="#3D3A39"/>
<path d="M85.9714 116.602C85.965 116.602 85.9585 116.602 85.952 116.602C85.9116 116.597 85.8749 116.576 85.8499 116.544C85.8248 116.512 85.8136 116.471 85.8185 116.431L86.8083 108.407C86.8104 108.387 86.8165 108.368 86.8264 108.35C86.8362 108.332 86.8495 108.317 86.8655 108.304C86.8815 108.292 86.8999 108.283 86.9195 108.277C86.9391 108.272 86.9596 108.271 86.9796 108.274C86.9997 108.276 87.0191 108.283 87.0367 108.293C87.0543 108.303 87.0697 108.316 87.0821 108.332C87.0946 108.348 87.1037 108.366 87.1091 108.386C87.1145 108.405 87.116 108.426 87.1135 108.446L86.1237 116.468C86.1188 116.505 86.1007 116.539 86.0727 116.564C86.0447 116.588 86.0087 116.602 85.9714 116.602Z" fill="#3D3A39"/>
<path d="M247.758 54.6942C247.758 54.6942 243.946 50.4126 244.388 42.394C244.73 36.1855 249.519 41.2065 249.519 41.2065C249.519 41.2065 249.809 36.7384 252.893 37.8022C255.977 38.8661 256.843 43.793 256.843 43.793" fill="#3D3A39"/>
<path d="M269.186 41.5791C269.186 41.5791 284.585 46.4029 274.646 66.5917L273.236 66.4072L270.371 66.0333" fill="#3D3A39"/>
<path d="M247.278 87.6411C247.349 87.6319 248.132 100.621 263.222 99.489C273.668 98.7063 277.393 87.6229 277.633 87.6229C276.506 87.3833 274.609 87.0353 274.109 86.7683C272.464 85.8843 270.429 84.9648 269.899 81.7703C269.593 79.929 270.112 70.51 269.952 68.6469L253.916 72.2258C254.141 76.1602 255.709 85.281 250.212 86.8953C249.298 87.1624 248.312 87.4079 247.278 87.6411Z" fill="#FAB397"/>
<path opacity="0.52" d="M253.692 83.1681C253.943 82.3585 254.105 81.5239 254.174 80.6791C254.351 78.7516 254.315 76.8105 254.069 74.8905C257.329 74.4507 260.399 73.1056 262.932 71.0079C263.23 72.1074 264.867 76.9125 264.414 77.9576C263.557 79.9331 259.529 83.1681 253.692 83.1681Z" fill="#3D3A39"/>
<path d="M255.615 78.7692C261.93 79.4494 270.137 77.0093 271.923 68.609L273.534 61.0292C275.319 52.6302 272.356 44.8812 264.446 43.1998C256.537 41.5185 249.177 47.0717 247.392 55.472L246.678 58.8276C246.453 59.984 246.308 61.1544 246.242 62.3306C246.045 65.438 245.759 70.1652 247.193 73.6872C248.546 77.0124 251.58 78.3344 255.615 78.7692Z" fill="#FAB397"/>
<path d="M250.598 59.4168C251.148 59.4168 251.594 58.971 251.594 58.4209C251.594 57.8709 251.148 57.425 250.598 57.425C250.048 57.425 249.603 57.8709 249.603 58.4209C249.603 58.971 250.048 59.4168 250.598 59.4168Z" fill="#3D3A39"/>
<path d="M260.057 60.4127C260.607 60.4127 261.053 59.9668 261.053 59.4168C261.053 58.8668 260.607 58.4209 260.057 58.4209C259.507 58.4209 259.062 58.8668 259.062 59.4168C259.062 59.9668 259.507 60.4127 260.057 60.4127Z" fill="#3D3A39"/>
<path d="M270.887 71.0638C273.291 71.5749 275.786 69.4176 276.297 67.0138C276.808 64.6101 275.141 62.8706 272.738 62.3596L271.157 63.7068L268.821 70.6245L270.887 71.0638Z" fill="#FAB397"/>
<path d="M269.264 66.7139C269.264 66.7139 270.826 54.6349 267.359 53.1787C265.051 52.209 258.533 54.4592 253.333 52.3508C251.058 51.4278 248.696 51.5663 248.245 52.6379C248.066 53.0621 247.86 46.4124 252.525 42.3267C256.239 39.0735 266.105 39.9125 270.244 42.047C281.704 47.9568 273.132 62.9835 273.132 62.9835L271.771 66.9831L269.264 66.7139Z" fill="#3D3A39"/>
<g opacity="0.52">
<path d="M253.189 67.5781L253.174 67.5756C252.399 67.4128 251.117 67.0526 251.238 66.4739C251.339 65.9936 253.742 61.084 254.016 60.5259C254.04 60.4779 254.081 60.4412 254.132 60.4239C254.183 60.4066 254.238 60.4101 254.286 60.4336C254.334 60.4572 254.371 60.4988 254.388 60.5494C254.405 60.6 254.402 60.6554 254.378 60.7034C253.312 62.8773 251.702 66.2302 251.633 66.5566C251.68 66.7105 252.454 67.0123 253.256 67.1806C253.307 67.1919 253.351 67.222 253.38 67.2649C253.408 67.3077 253.42 67.36 253.411 67.4109C253.403 67.4619 253.375 67.5076 253.334 67.5387C253.292 67.5698 253.241 67.5839 253.189 67.5781Z" fill="#3D3A39"/>
</g>
<path d="M253.011 55.3056C252.249 54.9213 251.398 54.7495 250.547 54.8081C250.129 54.8344 249.717 54.9233 249.326 55.0718C248.938 55.2168 248.57 55.4103 248.231 55.6477C248.175 55.6838 248.134 55.7407 248.119 55.8062C248.104 55.8717 248.116 55.9406 248.151 55.9978C248.186 56.0551 248.242 56.0962 248.308 56.1122C248.373 56.1283 248.442 56.118 248.5 56.0836L248.517 56.0735C248.828 55.8806 249.162 55.7277 249.512 55.6182C249.856 55.5082 250.214 55.451 250.576 55.4486C251.29 55.4382 251.994 55.6166 252.617 55.9658L252.64 55.9797C252.684 56.0056 252.732 56.0227 252.782 56.03C252.833 56.0372 252.884 56.0344 252.933 56.0218C252.982 56.0091 253.028 55.9869 253.069 55.9564C253.109 55.9258 253.143 55.8875 253.169 55.8438C253.195 55.8 253.212 55.7515 253.218 55.7013C253.225 55.651 253.222 55.5998 253.209 55.5507C253.196 55.5016 253.174 55.4556 253.143 55.4153C253.112 55.375 253.074 55.3411 253.03 55.3157L253.011 55.3056Z" fill="#3D3A39"/>
<path d="M258.705 56.8448C259.397 56.6673 260.123 56.6757 260.81 56.8691C261.159 56.9644 261.491 57.1118 261.795 57.3063C262.104 57.502 262.387 57.7357 262.638 58.0019L262.652 58.0158C262.7 58.0617 262.763 58.0876 262.829 58.088C262.895 58.0884 262.959 58.0633 263.007 58.0179C263.055 57.9725 263.083 57.9103 263.087 57.8444C263.09 57.7784 263.068 57.7137 263.024 57.6638C262.758 57.3474 262.452 57.0659 262.115 56.826C261.774 56.5821 261.399 56.3904 261.002 56.2575C260.195 55.9818 259.328 55.9287 258.493 56.1037C258.444 56.1144 258.397 56.1348 258.356 56.1637C258.314 56.1925 258.279 56.2293 258.251 56.2718C258.196 56.3577 258.178 56.462 258.199 56.5618C258.221 56.6615 258.281 56.7485 258.367 56.8037C258.453 56.8589 258.558 56.8776 258.657 56.8559L258.677 56.851L258.705 56.8448Z" fill="#3D3A39"/>
<path d="M251.971 69.4416C254.214 70.0021 256.58 69.799 258.695 68.8644C258.768 68.8325 258.849 68.8221 258.928 68.8344C259.007 68.8467 259.081 68.8812 259.141 68.9339C259.201 68.9866 259.245 69.0553 259.267 69.132C259.29 69.2087 259.29 69.2903 259.268 69.3671C258.875 70.6812 257.767 73.0283 254.897 72.8338C253.043 72.7089 251.979 71.0762 251.481 70.0289C251.447 69.9563 251.434 69.8754 251.444 69.7956C251.454 69.7159 251.487 69.6407 251.538 69.579C251.59 69.5172 251.658 69.4715 251.735 69.4472C251.811 69.4228 251.893 69.4209 251.971 69.4416Z" fill="white"/>
<path d="M260.872 44.0477C261.943 41.5317 261.427 38.9017 259.717 38.1735C258.008 37.4453 255.753 38.8946 254.681 41.4106C253.61 43.9266 254.126 46.5566 255.836 47.2848C257.545 48.013 259.8 46.5637 260.872 44.0477Z" fill="#3D3A39"/>
<path d="M263.457 96.3029C273.945 95.8085 274.386 86.9061 274.386 86.9061C274.386 86.9061 279.583 87.2421 283.038 87.7094C288.694 88.4746 292.426 90.3925 295.395 93.3617C298.157 96.1242 299.839 99.1128 298.059 118.193C296.771 132.009 297.678 162.397 297.678 162.397H233.762C233.762 162.397 229.298 118.496 228.769 112.276C227.759 100.404 224.907 97.7831 230.687 91.6675C234.878 87.2323 245.7 86.9061 250.056 86.9067C250.127 86.9067 249.173 96.9764 263.457 96.3029Z" fill="#3D3A39"/>
<path d="M228.618 94.417L212.093 129.451L179.504 104.944L166.561 122.156L209.713 154.607C210.099 154.894 210.503 155.157 210.921 155.394C212.154 156.085 213.511 156.526 214.914 156.693C216.318 156.859 217.74 156.747 219.101 156.364C220.461 155.981 221.733 155.333 222.843 154.458C223.953 153.583 224.88 152.499 225.57 151.266L225.757 150.932L250.969 105.931L228.618 94.417Z" fill="#3D3A39"/>
<path d="M300.13 162.705H9.05961C8.97802 162.705 8.89976 162.672 8.84206 162.615C8.78437 162.557 8.75195 162.479 8.75195 162.397C8.75195 162.316 8.78437 162.237 8.84206 162.18C8.89976 162.122 8.97802 162.09 9.05961 162.09H300.13C300.212 162.09 300.29 162.122 300.348 162.18C300.406 162.237 300.438 162.316 300.438 162.397C300.438 162.479 300.406 162.557 300.348 162.615C300.29 162.672 300.212 162.705 300.13 162.705Z" fill="#292A2E"/>
<path d="M236.82 116.636H80.9541V169.913H236.82V116.636Z" fill="white"/>
<path d="M236.974 170.067H80.8008V116.482H236.974V170.067ZM81.1084 169.76H236.666V116.79H81.1084V169.76Z" fill="#3D3A39"/>
<path d="M73.2581 132.918L82.8795 128.621C83.0909 128.527 83.3197 128.478 83.5512 128.476C83.7828 128.475 84.012 128.522 84.2244 128.615C84.4367 128.707 84.6275 128.843 84.7846 129.013C84.9417 129.183 85.0616 129.384 85.1368 129.603C85.2631 130.011 85.2332 130.452 85.0528 130.84C84.8724 131.228 84.5545 131.535 84.1606 131.701L82.0974 132.624L89.9154 132.705C90.7848 132.698 91.8555 133.247 91.7982 134.222C91.8007 134.599 91.6754 134.966 91.4428 135.263C91.2101 135.559 90.8838 135.768 90.5171 135.855C90.5193 135.863 90.5205 135.872 90.5208 135.88C90.5199 135.886 90.5186 135.893 90.5168 135.899L91.8576 135.889C92.1057 135.888 92.3511 135.942 92.5758 136.047C92.8006 136.152 92.999 136.306 93.1567 136.497C93.3145 136.689 93.4275 136.913 93.4876 137.154C93.5477 137.395 93.5534 137.646 93.5042 137.889C93.4187 138.271 93.2047 138.612 92.898 138.854C92.5914 139.097 92.2106 139.227 91.8195 139.223L91.2491 139.227C91.2415 139.243 91.2311 139.259 91.2183 139.271C91.6043 139.358 91.9469 139.579 92.1848 139.895C92.4227 140.211 92.5404 140.602 92.5169 140.997C92.4788 141.428 92.2793 141.83 91.9582 142.12C91.6372 142.411 91.2183 142.57 90.7851 142.566L89.368 142.576C89.388 142.59 89.4043 142.608 89.4159 142.63C89.4274 142.651 89.4338 142.675 89.4345 142.699C89.4332 142.728 89.4236 142.756 89.4068 142.78C89.7292 142.953 89.986 143.227 90.1375 143.559C90.2891 143.892 90.3272 144.266 90.2458 144.622C90.1527 144.995 89.9365 145.325 89.6323 145.56C89.3281 145.794 88.9537 145.919 88.5697 145.914L76.614 146C74.9416 146.012 73.3038 145.524 71.9103 144.599C70.5169 143.674 69.4315 142.354 68.793 140.808C68.2426 139.475 68.2335 137.98 68.7678 136.641C69.3021 135.301 70.3375 134.223 71.6543 133.635L73.2581 132.918Z" fill="#FAB397"/>
<g opacity="0.2">
<path d="M82.7783 135.812C82.7789 135.853 82.7953 135.891 82.8241 135.92C82.8529 135.948 82.8917 135.964 82.9321 135.964L90.367 136.031C90.4078 136.031 90.4471 136.015 90.4762 135.987C90.5053 135.958 90.5219 135.919 90.5222 135.878C90.5226 135.838 90.5068 135.798 90.4782 135.769C90.4496 135.74 90.4106 135.724 90.3698 135.723L82.9349 135.656C82.8941 135.656 82.855 135.672 82.8261 135.701C82.7973 135.73 82.7811 135.769 82.7811 135.81L82.7783 135.812Z" fill="#3D3A39"/>
</g>
<g opacity="0.2">
<path d="M82.6578 139.092C82.6584 139.132 82.6748 139.171 82.7036 139.199C82.7324 139.228 82.7712 139.243 82.8116 139.243L91.1089 139.318C91.1497 139.318 91.1888 139.302 91.2177 139.273C91.2465 139.244 91.2627 139.205 91.2627 139.164C91.2613 139.124 91.2447 139.086 91.2161 139.057C91.1876 139.029 91.1492 139.012 91.1089 139.011L82.8116 138.936C82.7913 138.936 82.7711 138.939 82.7523 138.947C82.7334 138.955 82.7163 138.966 82.7019 138.98C82.6874 138.995 82.6759 139.012 82.6681 139.03C82.6603 139.049 82.6562 139.069 82.6563 139.09L82.6578 139.092Z" fill="#3D3A39"/>
</g>
<g opacity="0.2">
<path d="M82.5078 142.64C82.5084 142.681 82.5248 142.719 82.5536 142.748C82.5824 142.776 82.6212 142.792 82.6616 142.792L89.2803 142.852C89.3211 142.852 89.3604 142.836 89.3895 142.808C89.4186 142.779 89.4352 142.74 89.4355 142.699C89.4359 142.658 89.42 142.619 89.3914 142.59C89.3629 142.561 89.3239 142.544 89.2831 142.544L82.6644 142.484C82.6236 142.484 82.5845 142.501 82.5556 142.529C82.5268 142.558 82.5106 142.597 82.5106 142.638L82.5078 142.64Z" fill="#3D3A39"/>
</g>
<path d="M76.0119 150.05L22.6678 162.176C20.8957 162.369 19.103 162.149 17.4304 161.532C15.7578 160.916 14.2507 159.92 13.0275 158.624C11.8042 157.327 10.8981 155.765 10.3801 154.059C9.86215 152.353 9.74647 150.551 10.0421 148.793L16.1467 99.6906C16.6544 96.6731 18.34 93.9809 20.8327 92.2062C23.3253 90.4316 26.4209 89.7198 29.4383 90.2275C32.4558 90.7352 35.148 92.4207 36.9227 94.9134C38.6974 97.4061 39.4092 100.502 38.9015 103.519L35.9618 138.664L73.0236 130.277L76.0119 150.05Z" fill="#DD727C"/>
<path d="M28.4621 140.046C28.4235 140.045 28.3864 140.03 28.3582 140.004C28.33 139.978 28.3128 139.941 28.31 139.903C28.3072 139.864 28.3189 139.826 28.343 139.796C28.367 139.766 28.4015 139.746 28.4397 139.74L35.873 138.152C35.893 138.149 35.9135 138.15 35.9331 138.155C35.9528 138.16 35.9714 138.168 35.9877 138.18C36.0039 138.192 36.0177 138.207 36.028 138.225C36.0383 138.242 36.045 138.262 36.0478 138.282C36.0538 138.322 36.0435 138.363 36.0193 138.396C35.9951 138.429 35.9588 138.45 35.9186 138.456L28.4852 140.044C28.4776 140.045 28.4699 140.046 28.4621 140.046Z" fill="#3D3A39"/>
<path d="M24.2682 162.397C24.2274 162.4 24.1872 162.386 24.1565 162.359C24.1257 162.332 24.107 162.294 24.1043 162.253C24.1017 162.213 24.1153 162.172 24.1423 162.142C24.1693 162.111 24.2074 162.092 24.2482 162.09L75.677 149.977L72.7629 130.502L35.9223 138.455C35.8985 138.458 35.8743 138.455 35.8516 138.447C35.8289 138.44 35.8084 138.427 35.7915 138.409C35.7747 138.392 35.7623 138.371 35.7551 138.348C35.7479 138.325 35.7463 138.301 35.7503 138.277L37.8168 118.196C37.8199 118.176 37.827 118.157 37.8376 118.139C37.8483 118.122 37.8623 118.107 37.8788 118.095C37.8953 118.084 37.914 118.075 37.9338 118.071C37.9536 118.067 37.9741 118.066 37.9941 118.07C38.0343 118.077 38.0702 118.099 38.0938 118.132C38.1175 118.166 38.127 118.207 38.1202 118.247L36.0896 138.122L72.8346 130.163C72.8544 130.157 72.875 130.156 72.8954 130.158C72.9157 130.161 72.9353 130.168 72.953 130.178C72.9707 130.188 72.9861 130.202 72.9984 130.219C73.0107 130.235 73.0197 130.254 73.0247 130.274L76.013 150.048C76.0224 150.087 76.0164 150.128 75.9961 150.162C75.9758 150.197 75.9429 150.222 75.9044 150.232L24.2882 162.396C24.2815 162.397 24.2748 162.397 24.2682 162.397Z" fill="#3D3A39"/>
<path d="M241.624 142.148L232.003 137.851C231.792 137.757 231.563 137.707 231.331 137.706C231.1 137.705 230.871 137.752 230.658 137.844C230.446 137.937 230.255 138.072 230.098 138.242C229.941 138.413 229.821 138.613 229.746 138.832C229.62 139.241 229.65 139.682 229.83 140.07C230.01 140.457 230.328 140.764 230.722 140.931L232.785 141.854L224.967 141.935C224.098 141.928 223.027 142.477 223.085 143.452C223.082 143.829 223.207 144.196 223.44 144.492C223.673 144.789 223.999 144.998 224.366 145.085C224.363 145.093 224.362 145.101 224.362 145.11C224.363 145.116 224.364 145.123 224.366 145.129L223.025 145.119C222.777 145.118 222.532 145.171 222.307 145.276C222.082 145.382 221.884 145.536 221.726 145.727C221.568 145.919 221.455 146.143 221.395 146.384C221.335 146.625 221.329 146.876 221.378 147.119C221.464 147.501 221.678 147.841 221.985 148.084C222.291 148.327 222.672 148.457 223.063 148.453L223.634 148.457C223.641 148.473 223.652 148.488 223.665 148.501C223.279 148.588 222.936 148.809 222.698 149.125C222.46 149.441 222.342 149.832 222.366 150.227C222.404 150.658 222.604 151.059 222.925 151.35C223.246 151.641 223.665 151.8 224.098 151.796L225.515 151.806C225.495 151.82 225.479 151.838 225.467 151.859C225.456 151.881 225.449 151.905 225.449 151.929C225.45 151.958 225.459 151.986 225.476 152.01C225.154 152.183 224.897 152.456 224.745 152.789C224.594 153.122 224.556 153.495 224.637 153.852C224.73 154.225 224.946 154.555 225.251 154.79C225.555 155.024 225.929 155.149 226.313 155.144L238.269 155.229C239.942 155.241 241.58 154.753 242.973 153.828C244.366 152.903 245.452 151.583 246.09 150.037C246.641 148.704 246.65 147.209 246.115 145.87C245.581 144.53 244.546 143.452 243.229 142.863L241.624 142.148Z" fill="#FAB397"/>
<g opacity="0.2">
<path d="M232.105 145.042C232.104 145.083 232.088 145.121 232.059 145.15C232.03 145.178 231.991 145.194 231.951 145.194L224.516 145.261C224.496 145.261 224.476 145.257 224.457 145.249C224.438 145.242 224.421 145.231 224.407 145.217C224.392 145.202 224.381 145.186 224.373 145.167C224.365 145.148 224.361 145.128 224.361 145.108C224.361 145.088 224.364 145.068 224.372 145.049C224.38 145.03 224.391 145.013 224.405 144.999C224.419 144.985 224.436 144.973 224.455 144.965C224.473 144.957 224.493 144.953 224.513 144.953L231.948 144.886C231.989 144.886 232.028 144.902 232.057 144.931C232.086 144.96 232.102 144.999 232.102 145.04L232.105 145.042Z" fill="#3D3A39"/>
</g>
<g opacity="0.2">
<path d="M232.224 148.322C232.224 148.362 232.207 148.4 232.179 148.428C232.151 148.457 232.112 148.473 232.072 148.473L223.774 148.548C223.734 148.548 223.695 148.532 223.666 148.503C223.637 148.474 223.621 148.435 223.621 148.394C223.622 148.354 223.639 148.315 223.667 148.287C223.696 148.258 223.734 148.242 223.774 148.24L232.072 148.166C232.113 148.166 232.152 148.182 232.18 148.211C232.209 148.239 232.226 148.279 232.226 148.319L232.224 148.322Z" fill="#3D3A39"/>
</g>
<g opacity="0.2">
<path d="M232.375 151.87C232.374 151.911 232.358 151.949 232.329 151.977C232.3 152.006 232.262 152.022 232.221 152.022L225.602 152.081C225.582 152.082 225.562 152.078 225.544 152.07C225.525 152.063 225.508 152.052 225.493 152.037C225.479 152.023 225.467 152.006 225.46 151.988C225.452 151.969 225.447 151.949 225.447 151.929C225.447 151.909 225.451 151.889 225.458 151.87C225.466 151.851 225.477 151.834 225.491 151.82C225.506 151.805 225.522 151.794 225.541 151.786C225.56 151.778 225.58 151.774 225.6 151.774L232.218 151.714C232.259 151.714 232.298 151.73 232.327 151.759C232.356 151.788 232.372 151.827 232.372 151.868L232.375 151.87Z" fill="#3D3A39"/>
</g>
<path d="M241.947 159.279L292.215 162.176C293.987 162.369 295.78 162.149 297.452 161.532C299.125 160.916 300.632 159.92 301.855 158.624C303.078 157.327 303.985 155.765 304.502 154.059C305.02 152.353 305.136 150.551 304.84 148.793L298.737 99.689C298.486 98.1949 297.942 96.765 297.138 95.4808C296.334 94.1966 295.285 93.0834 294.051 92.2047C292.817 91.3259 291.422 90.6989 289.945 90.3594C288.469 90.0199 286.94 89.9745 285.445 90.2259C283.951 90.4773 282.521 91.0205 281.237 91.8245C279.953 92.6285 278.84 93.6776 277.961 94.9118C277.082 96.1461 276.455 97.5413 276.116 99.0179C275.776 100.494 275.731 102.023 275.982 103.518L278.922 140.817L242.168 139.505L241.947 159.279Z" fill="#3D3A39"/>
<path d="M286.421 140.661C286.459 140.661 286.497 140.646 286.525 140.619C286.553 140.593 286.57 140.557 286.573 140.518C286.576 140.48 286.564 140.442 286.54 140.411C286.516 140.381 286.482 140.361 286.444 140.355L279.01 140.306C278.99 140.303 278.97 140.304 278.95 140.308C278.93 140.313 278.912 140.322 278.895 140.334C278.879 140.346 278.865 140.361 278.855 140.378C278.845 140.396 278.838 140.415 278.835 140.435C278.829 140.476 278.839 140.517 278.864 140.55C278.888 140.582 278.924 140.604 278.965 140.61L286.398 140.659C286.406 140.66 286.413 140.661 286.421 140.661Z" fill="#3D3A39"/>
<path d="M290.615 162.397C290.656 162.4 290.696 162.386 290.727 162.359C290.757 162.332 290.776 162.294 290.779 162.253C290.781 162.212 290.768 162.172 290.741 162.142C290.714 162.111 290.675 162.092 290.635 162.09L242.282 159.208L242.427 139.733L278.96 140.61C278.983 140.613 279.008 140.61 279.03 140.602C279.053 140.594 279.074 140.581 279.09 140.564C279.107 140.547 279.12 140.526 279.127 140.503C279.134 140.48 279.136 140.455 279.132 140.432L277.065 118.197C277.062 118.177 277.055 118.158 277.044 118.141C277.034 118.123 277.02 118.109 277.003 118.097C276.987 118.085 276.968 118.077 276.948 118.072C276.929 118.068 276.908 118.067 276.888 118.071C276.868 118.074 276.849 118.082 276.832 118.092C276.815 118.103 276.8 118.117 276.788 118.133C276.776 118.15 276.768 118.168 276.764 118.188C276.759 118.208 276.758 118.228 276.762 118.248L278.794 140.277L242.357 139.394C242.337 139.388 242.316 139.387 242.296 139.389C242.275 139.392 242.256 139.399 242.238 139.409C242.22 139.419 242.205 139.433 242.193 139.45C242.18 139.466 242.171 139.485 242.166 139.505L241.947 159.279C241.937 159.318 241.943 159.359 241.964 159.393C241.984 159.428 242.017 159.453 242.055 159.463L290.594 162.394C290.601 162.396 290.608 162.397 290.615 162.397Z" fill="#3D3A39"/>
<path d="M117.907 151.495H113.822L111.53 142.606C111.445 142.29 111.3 141.636 111.096 140.644C110.892 139.653 110.774 138.987 110.743 138.648C110.697 139.064 110.581 139.733 110.395 140.656C110.21 141.578 110.067 142.236 109.967 142.629L107.687 151.495H103.613L99.2954 134.574H102.826L104.99 143.811C105.368 145.516 105.642 146.994 105.812 148.244C105.858 147.804 105.964 147.123 106.13 146.201C106.296 145.279 106.453 144.563 106.599 144.054L109.064 134.574H112.456L114.921 144.054C115.029 144.478 115.164 145.126 115.326 145.998C115.489 146.87 115.612 147.618 115.695 148.244C115.773 147.642 115.896 146.892 116.065 145.993C116.234 145.093 116.387 144.366 116.526 143.811L118.68 134.574H122.21L117.907 151.495Z" fill="#B88A7A"/>
<path d="M134.088 151.495H124.342V134.574H134.088V137.514H127.931V141.229H133.66V144.168H127.931V148.532H134.088V151.495Z" fill="#B88A7A"/>
<path d="M137.619 151.495V134.574H141.207V148.533H148.07V151.496L137.619 151.495Z" fill="#B88A7A"/>
<path d="M158.199 137.316C157.59 137.289 156.984 137.413 156.436 137.679C155.888 137.945 155.415 138.343 155.06 138.838C154.32 139.853 153.949 141.267 153.949 143.081C153.949 146.855 155.365 148.741 158.197 148.741C159.676 148.684 161.134 148.383 162.515 147.849V150.859C161.037 151.454 159.455 151.75 157.862 151.727C155.4 151.727 153.518 150.98 152.213 149.487C150.909 147.994 150.257 145.85 150.257 143.057C150.222 141.463 150.55 139.881 151.218 138.433C151.81 137.163 152.772 136.102 153.978 135.389C155.263 134.661 156.721 134.295 158.197 134.33C159.917 134.348 161.61 134.756 163.15 135.522L161.993 138.439C161.371 138.142 160.733 137.88 160.083 137.652C159.478 137.434 158.841 137.321 158.199 137.316Z" fill="#B88A7A"/>
<path d="M181.475 143.011C181.475 145.812 180.78 147.965 179.391 149.47C178.002 150.975 176.011 151.727 173.419 151.727C170.826 151.727 168.835 150.974 167.446 149.47C166.057 147.965 165.363 145.804 165.363 142.988C165.363 140.171 166.059 138.02 167.452 136.535C168.845 135.05 170.841 134.307 173.442 134.307C176.042 134.307 178.031 135.055 179.409 136.553C180.786 138.05 181.475 140.203 181.475 143.011ZM169.125 143.011C169.125 144.901 169.483 146.325 170.201 147.282C170.919 148.239 171.992 148.717 173.419 148.717C176.282 148.717 177.713 146.815 177.713 143.011C177.713 139.199 176.289 137.293 173.442 137.293C172.015 137.293 170.938 137.774 170.211 138.734C169.485 139.695 169.123 141.121 169.125 143.011Z" fill="#B88A7A"/>
<path d="M192.147 151.495L188.073 138.219H187.968C188.115 140.92 188.188 142.722 188.188 143.624V151.495H184.982V134.574H189.867L193.871 147.515H193.941L198.189 134.574H203.073V151.495H199.728V143.485C199.728 143.108 199.734 142.672 199.745 142.178C199.757 141.683 199.809 140.372 199.902 138.242H199.798L195.434 151.495H192.147Z" fill="#B88A7A"/>
<path d="M217.078 151.495H207.332V134.574H217.078V137.514H210.921V141.229H216.65V144.168H210.921V148.532H217.078V151.495Z" fill="#B88A7A"/>
</svg>
