<svg width="20" height="19" viewBox="0 0 20 19" fill="none" xmlns="http://www.w3.org/2000/svg">
<path d="M3 0.00012207H9C9.79565 0.00012207 10.5587 0.316193 11.1213 0.878802C11.6839 1.44141 12 2.20447 12 3.00012V7.00012H11V3.00012C11 2.46969 10.7893 1.96098 10.4142 1.58591C10.0391 1.21084 9.53043 1.00012 9 1.00012H3C2.46957 1.00012 1.96086 1.21084 1.58579 1.58591C1.21071 1.96098 1 2.46969 1 3.00012V16.0001C1 16.5306 1.21071 17.0393 1.58579 17.4143C1.96086 17.7894 2.46957 18.0001 3 18.0001H9C9.53043 18.0001 10.0391 17.7894 10.4142 17.4143C10.7893 17.0393 11 16.5306 11 16.0001V12.0001H12V16.0001C12 16.7958 11.6839 17.5588 11.1213 18.1214C10.5587 18.6841 9.79565 19.0001 9 19.0001H3C2.20435 19.0001 1.44129 18.6841 0.87868 18.1214C0.316071 17.5588 0 16.7958 0 16.0001V3.00012C0 2.20447 0.316071 1.44141 0.87868 0.878802C1.44129 0.316193 2.20435 0.00012207 3 0.00012207ZM6 9.00012H17.25L14 5.75012L14.66 5.00012L19.16 9.50012L14.66 14.0001L14 13.2501L17.25 10.0001H6V9.00012Z" fill="#4A7C7A"/>
</svg>
